{
	"asset":{
		"generator":"Khronos glTF Blender I/O v4.0.44",
		"version":"2.0"
	},
	"scene":0,
	"scenes":[
		{
			"name":"Scene",
			"nodes":[
				0,
				1,
				2,
				3,
				4
			]
		}
	],
	"nodes":[
		{
			"mesh":0,
			"name":"Torso",
			"translation":[
				0.031131967902183533,
				2.0318918228149414,
				0.06652122735977173
			]
		},
		{
			"mesh":1,
			"name":"Head",
			"translation":[
				0.03113197721540928,
				4.391257286071777,
				-0.021951161324977875
			]
		},
		{
			"mesh":2,
			"name":"Shoulders",
			"translation":[
				-1.5590717792510986,
				3.095517158508301,
				0.06652145087718964
			]
		},
		{
			"mesh":3,
			"name":"Exhaust",
			"translation":[
				0.03113175928592682,
				1.033799648284912,
				0.06652123481035233
			]
		},
		{
			"mesh":4,
			"name":"Shoulders.001",
			"translation":[
				1.6213359832763672,
				3.095517158508301,
				0.0665203183889389
			]
		}
	],
	"materials":[
		{
			"doubleSided":true,
			"name":"ArmorMaterial",
			"pbrMetallicRoughness":{
				"baseColorFactor":[
					0.20881332457065582,
					0.037433281540870667,
					0.03925406187772751,
					1
				],
				"metallicFactor":0,
				"roughnessFactor":0.5
			}
		},
		{
			"doubleSided":true,
			"name":"FireMana",
			"pbrMetallicRoughness":{
				"baseColorFactor":[
					0.7999992966651917,
					0.014922999776899815,
					0,
					1
				],
				"metallicFactor":0,
				"roughnessFactor":0.5
			}
		}
	],
	"meshes":[
		{
			"name":"Cylinder",
			"primitives":[
				{
					"attributes":{
						"POSITION":0,
						"NORMAL":1,
						"TEXCOORD_0":2
					},
					"indices":3,
					"material":0
				},
				{
					"attributes":{
						"POSITION":4,
						"NORMAL":5,
						"TEXCOORD_0":6
					},
					"indices":7,
					"material":1
				}
			]
		},
		{
			"name":"Cube.001",
			"primitives":[
				{
					"attributes":{
						"POSITION":8,
						"NORMAL":9,
						"TEXCOORD_0":10
					},
					"indices":11,
					"material":0
				},
				{
					"attributes":{
						"POSITION":12,
						"NORMAL":13,
						"TEXCOORD_0":14
					},
					"indices":15,
					"material":1
				}
			]
		},
		{
			"name":"Cube.002",
			"primitives":[
				{
					"attributes":{
						"POSITION":16,
						"NORMAL":17,
						"TEXCOORD_0":18
					},
					"indices":19,
					"material":0
				},
				{
					"attributes":{
						"POSITION":20,
						"NORMAL":21,
						"TEXCOORD_0":22
					},
					"indices":23,
					"material":1
				}
			]
		},
		{
			"name":"Cone",
			"primitives":[
				{
					"attributes":{
						"POSITION":24,
						"NORMAL":25,
						"TEXCOORD_0":26
					},
					"indices":27,
					"material":1
				}
			]
		},
		{
			"name":"Cube.003",
			"primitives":[
				{
					"attributes":{
						"POSITION":28,
						"NORMAL":29,
						"TEXCOORD_0":30
					},
					"indices":31,
					"material":0
				},
				{
					"attributes":{
						"POSITION":32,
						"NORMAL":33,
						"TEXCOORD_0":34
					},
					"indices":35,
					"material":1
				}
			]
		}
	],
	"accessors":[
		{
			"bufferView":0,
			"componentType":5126,
			"count":296,
			"max":[
				1.349693775177002,
				1.2711527347564697,
				0.6880055665969849
			],
			"min":[
				-1.349693775177002,
				-0.7794167399406433,
				-0.6880055665969849
			],
			"type":"VEC3"
		},
		{
			"bufferView":1,
			"componentType":5126,
			"count":296,
			"type":"VEC3"
		},
		{
			"bufferView":2,
			"componentType":5126,
			"count":296,
			"type":"VEC2"
		},
		{
			"bufferView":3,
			"componentType":5123,
			"count":696,
			"type":"SCALAR"
		},
		{
			"bufferView":4,
			"componentType":5126,
			"count":54,
			"max":[
				1.1586217880249023,
				1.2711527347564697,
				0.590606689453125
			],
			"min":[
				-1.1586217880249023,
				-0.7153334617614746,
				-0.590606689453125
			],
			"type":"VEC3"
		},
		{
			"bufferView":5,
			"componentType":5126,
			"count":54,
			"type":"VEC3"
		},
		{
			"bufferView":6,
			"componentType":5126,
			"count":54,
			"type":"VEC2"
		},
		{
			"bufferView":7,
			"componentType":5123,
			"count":84,
			"type":"SCALAR"
		},
		{
			"bufferView":8,
			"componentType":5126,
			"count":79,
			"max":[
				0.9587944149971008,
				0.2664683759212494,
				1.2029266357421875
			],
			"min":[
				-0.9587942361831665,
				-0.8106702566146851,
				-1.0068540573120117
			],
			"type":"VEC3"
		},
		{
			"bufferView":9,
			"componentType":5126,
			"count":79,
			"type":"VEC3"
		},
		{
			"bufferView":10,
			"componentType":5126,
			"count":79,
			"type":"VEC2"
		},
		{
			"bufferView":11,
			"componentType":5123,
			"count":156,
			"type":"SCALAR"
		},
		{
			"bufferView":12,
			"componentType":5126,
			"count":8,
			"max":[
				0.7985280752182007,
				0.1907084733247757,
				0.14779847860336304
			],
			"min":[
				-0.7985279560089111,
				-0.1352560967206955,
				-0.9883077144622803
			],
			"type":"VEC3"
		},
		{
			"bufferView":13,
			"componentType":5126,
			"count":8,
			"type":"VEC3"
		},
		{
			"bufferView":14,
			"componentType":5126,
			"count":8,
			"type":"VEC2"
		},
		{
			"bufferView":15,
			"componentType":5123,
			"count":12,
			"type":"SCALAR"
		},
		{
			"bufferView":16,
			"componentType":5126,
			"count":106,
			"max":[
				0.6270219087600708,
				0.6675496697425842,
				0.7233791947364807
			],
			"min":[
				-0.5509506464004517,
				-0.9072282910346985,
				-0.7233791947364807
			],
			"type":"VEC3"
		},
		{
			"bufferView":17,
			"componentType":5126,
			"count":106,
			"type":"VEC3"
		},
		{
			"bufferView":18,
			"componentType":5126,
			"count":106,
			"type":"VEC2"
		},
		{
			"bufferView":19,
			"componentType":5123,
			"count":180,
			"type":"SCALAR"
		},
		{
			"bufferView":20,
			"componentType":5126,
			"count":14,
			"max":[
				0.49088728427886963,
				0.583419144153595,
				0.6354970335960388
			],
			"min":[
				-0.42534172534942627,
				-0.7486574053764343,
				-0.6354970335960388
			],
			"type":"VEC3"
		},
		{
			"bufferView":21,
			"componentType":5126,
			"count":14,
			"type":"VEC3"
		},
		{
			"bufferView":22,
			"componentType":5126,
			"count":14,
			"type":"VEC2"
		},
		{
			"bufferView":23,
			"componentType":5123,
			"count":24,
			"type":"SCALAR"
		},
		{
			"bufferView":24,
			"componentType":5126,
			"count":24,
			"max":[
				0.5298680663108826,
				0.15139132738113403,
				0.458879292011261
			],
			"min":[
				-0.5298683047294617,
				-0.9083454608917236,
				-0.458879292011261
			],
			"type":"VEC3"
		},
		{
			"bufferView":25,
			"componentType":5126,
			"count":24,
			"type":"VEC3"
		},
		{
			"bufferView":26,
			"componentType":5126,
			"count":24,
			"type":"VEC2"
		},
		{
			"bufferView":27,
			"componentType":5123,
			"count":30,
			"type":"SCALAR"
		},
		{
			"bufferView":28,
			"componentType":5126,
			"count":106,
			"max":[
				0.5509506464004517,
				0.6675496697425842,
				0.7233794927597046
			],
			"min":[
				-0.6270224452018738,
				-0.9072282910346985,
				-0.7233790755271912
			],
			"type":"VEC3"
		},
		{
			"bufferView":29,
			"componentType":5126,
			"count":106,
			"type":"VEC3"
		},
		{
			"bufferView":30,
			"componentType":5126,
			"count":106,
			"type":"VEC2"
		},
		{
			"bufferView":31,
			"componentType":5123,
			"count":180,
			"type":"SCALAR"
		},
		{
			"bufferView":32,
			"componentType":5126,
			"count":14,
			"max":[
				0.42534172534942627,
				0.583419144153595,
				0.6354972720146179
			],
			"min":[
				-0.49088776111602783,
				-0.7486574053764343,
				-0.6354969143867493
			],
			"type":"VEC3"
		},
		{
			"bufferView":33,
			"componentType":5126,
			"count":14,
			"type":"VEC3"
		},
		{
			"bufferView":34,
			"componentType":5126,
			"count":14,
			"type":"VEC2"
		},
		{
			"bufferView":35,
			"componentType":5123,
			"count":24,
			"type":"SCALAR"
		}
	],
	"bufferViews":[
		{
			"buffer":0,
			"byteLength":3552,
			"byteOffset":0,
			"target":34962
		},
		{
			"buffer":0,
			"byteLength":3552,
			"byteOffset":3552,
			"target":34962
		},
		{
			"buffer":0,
			"byteLength":2368,
			"byteOffset":7104,
			"target":34962
		},
		{
			"buffer":0,
			"byteLength":1392,
			"byteOffset":9472,
			"target":34963
		},
		{
			"buffer":0,
			"byteLength":648,
			"byteOffset":10864,
			"target":34962
		},
		{
			"buffer":0,
			"byteLength":648,
			"byteOffset":11512,
			"target":34962
		},
		{
			"buffer":0,
			"byteLength":432,
			"byteOffset":12160,
			"target":34962
		},
		{
			"buffer":0,
			"byteLength":168,
			"byteOffset":12592,
			"target":34963
		},
		{
			"buffer":0,
			"byteLength":948,
			"byteOffset":12760,
			"target":34962
		},
		{
			"buffer":0,
			"byteLength":948,
			"byteOffset":13708,
			"target":34962
		},
		{
			"buffer":0,
			"byteLength":632,
			"byteOffset":14656,
			"target":34962
		},
		{
			"buffer":0,
			"byteLength":312,
			"byteOffset":15288,
			"target":34963
		},
		{
			"buffer":0,
			"byteLength":96,
			"byteOffset":15600,
			"target":34962
		},
		{
			"buffer":0,
			"byteLength":96,
			"byteOffset":15696,
			"target":34962
		},
		{
			"buffer":0,
			"byteLength":64,
			"byteOffset":15792,
			"target":34962
		},
		{
			"buffer":0,
			"byteLength":24,
			"byteOffset":15856,
			"target":34963
		},
		{
			"buffer":0,
			"byteLength":1272,
			"byteOffset":15880,
			"target":34962
		},
		{
			"buffer":0,
			"byteLength":1272,
			"byteOffset":17152,
			"target":34962
		},
		{
			"buffer":0,
			"byteLength":848,
			"byteOffset":18424,
			"target":34962
		},
		{
			"buffer":0,
			"byteLength":360,
			"byteOffset":19272,
			"target":34963
		},
		{
			"buffer":0,
			"byteLength":168,
			"byteOffset":19632,
			"target":34962
		},
		{
			"buffer":0,
			"byteLength":168,
			"byteOffset":19800,
			"target":34962
		},
		{
			"buffer":0,
			"byteLength":112,
			"byteOffset":19968,
			"target":34962
		},
		{
			"buffer":0,
			"byteLength":48,
			"byteOffset":20080,
			"target":34963
		},
		{
			"buffer":0,
			"byteLength":288,
			"byteOffset":20128,
			"target":34962
		},
		{
			"buffer":0,
			"byteLength":288,
			"byteOffset":20416,
			"target":34962
		},
		{
			"buffer":0,
			"byteLength":192,
			"byteOffset":20704,
			"target":34962
		},
		{
			"buffer":0,
			"byteLength":60,
			"byteOffset":20896,
			"target":34963
		},
		{
			"buffer":0,
			"byteLength":1272,
			"byteOffset":20956,
			"target":34962
		},
		{
			"buffer":0,
			"byteLength":1272,
			"byteOffset":22228,
			"target":34962
		},
		{
			"buffer":0,
			"byteLength":848,
			"byteOffset":23500,
			"target":34962
		},
		{
			"buffer":0,
			"byteLength":360,
			"byteOffset":24348,
			"target":34963
		},
		{
			"buffer":0,
			"byteLength":168,
			"byteOffset":24708,
			"target":34962
		},
		{
			"buffer":0,
			"byteLength":168,
			"byteOffset":24876,
			"target":34962
		},
		{
			"buffer":0,
			"byteLength":112,
			"byteOffset":25044,
			"target":34962
		},
		{
			"buffer":0,
			"byteLength":48,
			"byteOffset":25156,
			"target":34963
		}
	],
	"buffers":[
		{
			"byteLength":25204,
			"uri":"fireminion.bin"
		}
	]
}
